<svg width="106" height="29" viewBox="0 0 106 29" fill="none" xmlns="http://www.w3.org/2000/svg">
<path fill-rule="evenodd" clip-rule="evenodd" d="M9.0945 0.92544C9.0945 0.41984 8.67919 0 8.15236 0H8.15108C7.63579 0 7.20766 0.41984 7.20766 0.92544C7.20766 2.30656 8.36515 3.44064 9.78668 3.44064H11.0313C11.8863 3.44064 12.6041 4.13056 12.6041 4.98176V5.1904C10.8929 5.1904 9.20858 5.216 7.56016 5.2416C3.18275 5.2416 0 8.34816 0 12.64V18.1517C0 22.4435 3.18275 25.5501 7.54735 25.5501C9.29575 25.5872 11.0698 25.6 12.831 25.6C14.5922 25.6 16.3406 25.5885 18.089 25.5501C22.4536 25.5501 25.6364 22.4435 25.6364 18.1517V12.6387C25.6364 8.34816 22.4536 5.24032 18.089 5.24032C17.669 5.23631 17.2504 5.23076 16.8328 5.22521C16.0499 5.21482 15.2705 5.20448 14.4922 5.20448V4.97024C14.4794 3.11936 12.931 1.60384 11.0313 1.59104H9.78668C9.40983 1.59104 9.0945 1.29536 9.0945 0.92544ZM8.41747 12.5115C8.59451 12.3379 8.83353 12.2418 9.08168 12.2445H9.08297C9.59834 12.243 10.0193 12.6554 10.0277 13.1699V14.4653H11.3479C11.8623 14.4645 12.2823 14.8759 12.2914 15.3895C12.2897 15.6375 12.189 15.8746 12.0117 16.0483C11.8344 16.222 11.595 16.318 11.3467 16.3149H10.0264V17.6218C10.0173 18.1354 9.59735 18.5467 9.08297 18.5459C8.55486 18.5459 8.13955 18.1274 8.13955 17.6205V16.3149H6.80646C6.29117 16.3149 5.86304 15.9079 5.86304 15.3895C5.87214 14.8759 6.29207 14.4645 6.80646 14.4653H8.13827V13.1699C8.13996 12.9221 8.24043 12.6852 8.41747 12.5115ZM18.9696 16.6221H18.8427C18.3312 16.6221 17.9166 17.0361 17.9166 17.5469C17.9166 18.0576 18.3312 18.4717 18.8427 18.4717H18.9683C19.2163 18.4744 19.4551 18.3785 19.6321 18.2051C19.8091 18.0317 19.9097 17.7951 19.9118 17.5475C19.9027 17.0339 19.4827 16.6226 18.9683 16.6234L18.9696 16.6221ZM16.6918 12.3814H16.8175C17.3323 12.3807 17.7525 12.7928 17.7609 13.3069C17.7588 13.5545 17.6582 13.7911 17.4812 13.9645C17.3042 14.1378 17.0654 14.2338 16.8175 14.231H16.6918C16.1804 14.231 15.7657 13.817 15.7657 13.3062C15.7657 12.7955 16.1804 12.3814 16.6918 12.3814Z" fill="url(#paint0_linear)"/>
<path fill-rule="evenodd" clip-rule="evenodd" d="M71.78 7.43637C72.3566 7.43637 72.8497 7.24395 73.2593 6.8591C73.669 6.47425 73.8739 6.01213 73.8739 5.47273C73.8739 4.9394 73.669 4.48031 73.2593 4.09546C72.8497 3.71061 72.3535 3.51819 71.7709 3.51819C71.2004 3.51819 70.7088 3.71061 70.2961 4.09546C69.8833 4.48031 69.677 4.9394 69.677 5.47273C69.677 6.01213 69.8833 6.47425 70.2961 6.8591C70.7088 7.24395 71.2034 7.43637 71.78 7.43637ZM47.0303 22.6136C45.8711 23.1803 44.5207 23.4636 42.9791 23.4636C41.4315 23.4636 40.0781 23.1803 38.9188 22.6136C37.7596 22.047 36.8583 21.2545 36.215 20.2364C35.5717 19.2182 35.25 18.0303 35.25 16.6727V4.58182H39.192V16.3364C39.192 17.0455 39.3482 17.6758 39.6608 18.2273C39.9734 18.7788 40.4149 19.2121 40.9854 19.5273C41.5559 19.8424 42.2205 20 42.9791 20C43.7439 20 44.41 19.8424 44.9774 19.5273C45.5449 19.2121 45.9849 18.7788 46.2975 18.2273C46.6101 17.6758 46.7663 17.0455 46.7663 16.3364V4.58182H50.7083V16.6727C50.7083 18.0303 50.3851 19.2182 49.7387 20.2364C49.0924 21.2545 48.1896 22.047 47.0303 22.6136ZM57.7583 15.1273V23.2H53.8801V9.23638H57.5762V11.7H57.7401C58.0496 10.8879 58.5685 10.244 59.2969 9.7682C60.0252 9.29244 60.9082 9.05456 61.9461 9.05456C62.9171 9.05456 63.7638 9.26668 64.486 9.69092C65.2083 10.1152 65.7697 10.7197 66.1702 11.5046C66.5708 12.2894 66.7711 13.2243 66.7711 14.3091V23.2H62.8929V15C62.8989 14.1455 62.6804 13.4773 62.2374 12.9955C61.7943 12.5137 61.1844 12.2727 60.4075 12.2727C59.8856 12.2727 59.4258 12.3849 59.0283 12.6091C58.6308 12.8333 58.3212 13.1591 58.0997 13.5864C57.8782 14.0137 57.7644 14.5273 57.7583 15.1273ZM73.7009 9.23638V23.2H69.8226V9.23638H73.7009ZM82.3895 23.3909C82.8933 23.3728 83.3212 23.3228 83.6732 23.2409C84.0252 23.1591 84.2983 23.0879 84.4925 23.0273L83.8826 20.1455C83.7855 20.1637 83.6459 20.1894 83.4638 20.2228C83.2817 20.2561 83.0996 20.2728 82.9176 20.2728C82.6566 20.2728 82.4275 20.2334 82.2302 20.1546C82.033 20.0758 81.8797 19.9379 81.7705 19.7409C81.6612 19.544 81.6066 19.2667 81.6066 18.9091L81.6064 12.1456L84.2376 12.1455V9.23639L81.6064 9.23682L81.6066 5.89093H77.7284L77.7281 9.23682L75.8166 9.23639V12.1455L77.7281 12.1456L77.7284 19.4182C77.7229 20.2502 77.8804 20.9519 78.2009 21.5234L78.3019 21.6909C78.6903 22.2909 79.2351 22.7334 79.9361 23.0182C80.637 23.3031 81.4549 23.4273 82.3895 23.3909ZM91.608 27.9773C90.9283 28.2833 90.1089 28.4364 89.15 28.4364C88.6584 28.4364 88.1987 28.3985 87.7708 28.3227C87.3429 28.247 86.9894 28.1515 86.7102 28.0364L87.5841 25.1455C88.0393 25.2849 88.4505 25.3606 88.8177 25.3727C89.1849 25.3849 89.5035 25.3 89.7736 25.1182C90.0437 24.9364 90.2637 24.6273 90.4336 24.1909L90.6612 23.6L85.645 9.23638H89.7235L92.6186 19.4909H92.7642L95.6866 9.23638L99.7924 9.25456L94.3574 24.7091C94.0964 25.4606 93.7429 26.1167 93.2968 26.6773C92.8507 27.2379 92.2878 27.6712 91.608 27.9773Z" fill="#11142D"/>
<path d="M105.415 23.2V19.1875H101.397V23.2H105.415Z" fill="#6C5DD3"/>
<defs>
<linearGradient id="paint0_linear" x1="14.4604" y1="-9.41875" x2="-4.37263" y2="12.9279" gradientUnits="userSpaceOnUse">
<stop stop-color="#5C8FFF"/>
<stop offset="1" stop-color="#C14BFF"/>
</linearGradient>
</defs>
</svg>
