<svg viewBox="0 0 113 38" fill="none" xmlns="http://www.w3.org/2000/svg">
<path fill-rule="evenodd" clip-rule="evenodd" d="M0.00466442 24.7577C-0.118269 23.9387 2.20723 23.8006 4.79908 22.6263C4.92201 22.577 5.20885 22.5819 5.93109 22.1675C6.47917 21.8616 11.8421 20.4752 11.8934 19.8387C11.96 19.074 6.0489 18.3142 6.1872 17.5692C6.95554 13.4594 8.86101 9.75902 11.7141 6.82342C15.7555 2.65438 21.7639 0 29.1399 0C35.804 0 41.5101 2.97014 43.9381 6.03895L36.562 13.8491C34.5439 11.92 31.5115 10.5682 28.3767 10.5682C25.0473 10.5682 22.3735 11.7671 20.5499 13.6419C19.4845 14.7421 18.7008 16.0743 18.2193 17.5692C17.9888 18.2895 23.8435 19.0543 23.7565 19.8387C23.7052 20.2828 20.5499 20.7071 19.6689 21.2695C19.3872 21.4472 17.9888 22.0047 17.7225 22.1724C16.3241 23.1 12.088 23.9881 12.4773 24.7084C12.8922 25.4682 19.4538 26.0898 20.1043 26.5882C21.3183 27.5009 22.8806 27.9548 24.5402 27.9548C25.8054 27.9548 26.8144 27.7476 27.6238 27.3825L28.7865 23.4799H22.9779L23.2955 22.1675L29.8827 19.8387L24.4275 17.5692L24.8936 15.6697H41.9148L41.3974 17.5692L48 19.8387L40.1476 22.1675L33.4375 24.7528L38.949 26.5882L36.8643 34.2553C33.3811 36.3867 28.3767 38 23.2801 38C15.8426 38 8.48196 34.576 6.39209 26.5882C6.23842 26.006 0.101987 25.3942 0.00466442 24.7577Z" fill="url(#paint0_linear)"/>
<path fill-rule="evenodd" clip-rule="evenodd" d="M72.18 29L74.84 13.88H78.1L75.42 29H72.18ZM65.02 26.48C65.42 26.4667 65.79 26.43 66.13 26.37C66.47 26.31 66.7867 26.2067 67.08 26.06L67.54 23.4H64.78L65.28 20.66H71.1L69.8 28.14C69.08 28.5133 68.27 28.8133 67.37 29.04C66.47 29.2667 65.54 29.38 64.58 29.38C63.5667 29.38 62.6433 29.2367 61.81 28.95C60.9767 28.6633 60.2667 28.2533 59.68 27.72C59.0933 27.1867 58.6367 26.54 58.31 25.78C57.9833 25.02 57.82 24.1667 57.82 23.22C57.82 22.0067 58.03 20.8667 58.45 19.8C58.87 18.7333 59.4567 17.8033 60.21 17.01C60.9633 16.2167 61.85 15.5933 62.87 15.14C63.89 14.6867 65 14.46 66.2 14.46C67.32 14.46 68.3367 14.6367 69.25 14.99C70.1633 15.3433 70.88 15.8667 71.4 16.56L68.98 18.74C68.7133 18.3533 68.35 18.03 67.89 17.77C67.43 17.51 66.8467 17.38 66.14 17.38C65.4467 17.38 64.8033 17.5267 64.21 17.82C63.6167 18.1133 63.1033 18.51 62.67 19.01C62.2367 19.51 61.8967 20.09 61.65 20.75C61.4033 21.41 61.28 22.1067 61.28 22.84C61.28 23.36 61.36 23.8433 61.52 24.29C61.68 24.7367 61.92 25.1233 62.24 25.45C62.56 25.7767 62.9533 26.03 63.42 26.21C63.8867 26.39 64.42 26.48 65.02 26.48ZM79.84 19.04L78.1 29H81.28L83.06 19.04H79.84ZM83.74 15.7C83.74 15.9667 83.6933 16.2133 83.6 16.44C83.5067 16.6667 83.3767 16.87 83.21 17.05C83.0433 17.23 82.8467 17.37 82.62 17.47C82.3933 17.57 82.1467 17.62 81.88 17.62C81.3733 17.62 80.9567 17.47 80.63 17.17C80.3033 16.87 80.14 16.4867 80.14 16.02C80.14 15.4733 80.3233 15.0167 80.69 14.65C81.0567 14.2833 81.5067 14.1 82.04 14.1C82.5333 14.1 82.94 14.2533 83.26 14.56C83.58 14.8667 83.74 15.2467 83.74 15.7ZM84.4 19.04L83.96 21.46H85.6L84.84 25.68C84.8 25.8667 84.77 26.0633 84.75 26.27C84.73 26.4767 84.72 26.66 84.72 26.82C84.72 27.66 84.9967 28.2733 85.55 28.66C86.1033 29.0467 86.86 29.24 87.82 29.24C88.1267 29.24 88.45 29.21 88.79 29.15C89.13 29.09 89.3933 29.02 89.58 28.94L89.88 26.64L89.47 26.72C89.3167 26.7467 89.16 26.76 89 26.76C88.68 26.76 88.4267 26.7 88.24 26.58C88.0533 26.46 87.96 26.2333 87.96 25.9C87.96 25.8333 87.9633 25.75 87.97 25.65L87.9825 25.5025L88 25.36L88.72 21.46H90.78L91.22 19.04H89.1L89.56 16.4H86.44L85.98 19.04H84.4ZM99.22 22.2C99.0733 21.9733 98.8433 21.7733 98.53 21.6C98.2167 21.4267 97.8667 21.34 97.48 21.34C97.0533 21.34 96.66 21.4233 96.3 21.59C95.94 21.7567 95.63 21.9867 95.37 22.28C95.11 22.5733 94.9067 22.91 94.76 23.29C94.6133 23.67 94.54 24.0667 94.54 24.48C94.54 24.76 94.5833 25.03 94.67 25.29C94.7567 25.55 94.8867 25.7767 95.06 25.97C95.2333 26.1633 95.4567 26.32 95.73 26.44C96.0033 26.56 96.3267 26.62 96.7 26.62C97.18 26.62 97.5867 26.5333 97.92 26.36C98.2533 26.1867 98.54 25.9733 98.78 25.72L100.3 27.76C99.78 28.2267 99.1933 28.5967 98.54 28.87C97.8867 29.1433 97.1333 29.28 96.28 29.28C95.56 29.28 94.9 29.1767 94.3 28.97C93.7 28.7633 93.19 28.4667 92.77 28.08C92.35 27.6933 92.0233 27.2333 91.79 26.7C91.5567 26.1667 91.44 25.5667 91.44 24.9C91.44 24.0867 91.5867 23.31 91.88 22.57C92.1733 21.83 92.5867 21.1767 93.12 20.61C93.6533 20.0433 94.2967 19.59 95.05 19.25C95.8033 18.91 96.64 18.74 97.56 18.74C98.32 18.74 99.03 18.8667 99.69 19.12C100.35 19.3733 100.867 19.76 101.24 20.28L99.22 22.2ZM108.72 23.6L107.78 29H110.98L112.06 22.88C112.1 22.7067 112.127 22.53 112.14 22.35C112.153 22.17 112.16 21.9867 112.16 21.8C112.16 21.4 112.1 21.0167 111.98 20.65C111.86 20.2833 111.67 19.96 111.41 19.68C111.15 19.4 110.82 19.18 110.42 19.02C110.02 18.86 109.54 18.78 108.98 18.78C108.3 18.78 107.707 18.9367 107.2 19.25C106.693 19.5633 106.3 19.9267 106.02 20.34H105.98L107.12 13.88H103.9L101.24 29H104.44L105.4 23.64C105.507 23.0267 105.737 22.5033 106.09 22.07C106.443 21.6367 106.913 21.42 107.5 21.42C107.993 21.42 108.337 21.55 108.53 21.81C108.723 22.07 108.82 22.3867 108.82 22.76C108.82 23.0133 108.787 23.2933 108.72 23.6Z" fill="white"/>
<defs>
<linearGradient id="paint0_linear" x1="24" y1="0" x2="24" y2="38" gradientUnits="userSpaceOnUse">
<stop stop-color="#FFA585"/>
<stop offset="1" stop-color="#FFEDA0"/>
</linearGradient>
</defs>
</svg>
