<svg viewBox="0 0 113 38" fill="none" xmlns="http://www.w3.org/2000/svg">
<path fill-rule="evenodd" clip-rule="evenodd" d="M0.00466442 24.7577C-0.118269 23.9387 2.20723 23.8006 4.79908 22.6263C4.92201 22.577 5.20885 22.5819 5.93109 22.1675C6.47917 21.8616 11.8421 20.4752 11.8934 19.8387C11.96 19.074 6.0489 18.3142 6.1872 17.5692C6.95554 13.4594 8.86101 9.75902 11.7141 6.82342C15.7555 2.65438 21.7639 0 29.1399 0C35.804 0 41.5101 2.97014 43.9381 6.03895L36.562 13.8491C34.5439 11.92 31.5115 10.5682 28.3767 10.5682C25.0473 10.5682 22.3735 11.7671 20.5499 13.6419C19.4845 14.7421 18.7008 16.0743 18.2193 17.5692C17.9888 18.2895 23.8435 19.0543 23.7565 19.8387C23.7052 20.2828 20.5499 20.7071 19.6689 21.2695C19.3872 21.4472 17.9888 22.0047 17.7225 22.1724C16.3241 23.1 12.088 23.9881 12.4773 24.7084C12.8922 25.4682 19.4538 26.0898 20.1043 26.5882C21.3183 27.5009 22.8806 27.9548 24.5402 27.9548C25.8054 27.9548 26.8144 27.7476 27.6238 27.3825L28.7865 23.4799H22.9779L23.2955 22.1675L29.8827 19.8387L24.4275 17.5692L24.8936 15.6697H41.9148L41.3974 17.5692L48 19.8387L40.1476 22.1675L33.4375 24.7528L38.949 26.5882L36.8643 34.2553C33.3811 36.3867 28.3767 38 23.2801 38C15.8426 38 8.48196 34.576 6.39209 26.5882C6.23842 26.006 0.101987 25.3942 0.00466442 24.7577Z" fill="#613BFF"/>
<path fill-rule="evenodd" clip-rule="evenodd" d="M72.1801 29L74.8401 13.88H78.1001L75.4201 29H72.1801ZM65.0201 26.48C65.4201 26.4667 65.7901 26.43 66.1301 26.37C66.4701 26.31 66.7867 26.2067 67.0801 26.06L67.5401 23.4H64.7801L65.2801 20.66H71.1001L69.8001 28.14C69.0801 28.5133 68.2701 28.8133 67.3701 29.04C66.4701 29.2667 65.5401 29.38 64.5801 29.38C63.5667 29.38 62.6434 29.2367 61.8101 28.95C60.9767 28.6633 60.2667 28.2533 59.6801 27.72C59.0934 27.1867 58.6367 26.54 58.3101 25.78C57.9834 25.02 57.8201 24.1667 57.8201 23.22C57.8201 22.0067 58.0301 20.8667 58.4501 19.8C58.8701 18.7333 59.4567 17.8033 60.2101 17.01C60.9634 16.2167 61.8501 15.5933 62.8701 15.14C63.8901 14.6867 65.0001 14.46 66.2001 14.46C67.3201 14.46 68.3367 14.6367 69.2501 14.99C70.1634 15.3433 70.8801 15.8667 71.4001 16.56L68.9801 18.74C68.7134 18.3533 68.3501 18.03 67.8901 17.77C67.4301 17.51 66.8467 17.38 66.1401 17.38C65.4467 17.38 64.8034 17.5267 64.2101 17.82C63.6167 18.1133 63.1034 18.51 62.6701 19.01C62.2367 19.51 61.8967 20.09 61.6501 20.75C61.4034 21.41 61.2801 22.1067 61.2801 22.84C61.2801 23.36 61.3601 23.8433 61.5201 24.29C61.6801 24.7367 61.9201 25.1233 62.2401 25.45C62.5601 25.7767 62.9534 26.03 63.4201 26.21C63.8867 26.39 64.4201 26.48 65.0201 26.48ZM79.8401 19.04L78.1001 29H81.2801L83.0601 19.04H79.8401ZM83.7401 15.7C83.7401 15.9667 83.6934 16.2133 83.6001 16.44C83.5067 16.6667 83.3767 16.87 83.2101 17.05C83.0434 17.23 82.8467 17.37 82.6201 17.47C82.3934 17.57 82.1467 17.62 81.8801 17.62C81.3734 17.62 80.9567 17.47 80.6301 17.17C80.3034 16.87 80.1401 16.4867 80.1401 16.02C80.1401 15.4733 80.3234 15.0167 80.6901 14.65C81.0567 14.2833 81.5067 14.1 82.0401 14.1C82.5334 14.1 82.9401 14.2533 83.2601 14.56C83.5801 14.8667 83.7401 15.2467 83.7401 15.7ZM84.4001 19.04L83.9601 21.46H85.6001L84.8401 25.68C84.8001 25.8667 84.7701 26.0633 84.7501 26.27C84.7301 26.4767 84.7201 26.66 84.7201 26.82C84.7201 27.66 84.9967 28.2733 85.5501 28.66C86.1034 29.0467 86.8601 29.24 87.8201 29.24C88.1267 29.24 88.4501 29.21 88.7901 29.15C89.1301 29.09 89.3934 29.02 89.5801 28.94L89.8801 26.64L89.4701 26.72C89.3167 26.7467 89.1601 26.76 89.0001 26.76C88.6801 26.76 88.4267 26.7 88.2401 26.58C88.0534 26.46 87.9601 26.2333 87.9601 25.9C87.9601 25.8333 87.9634 25.75 87.9701 25.65L87.9826 25.5025L88.0001 25.36L88.7201 21.46H90.7801L91.2201 19.04H89.1001L89.5601 16.4H86.4401L85.9801 19.04H84.4001ZM99.2201 22.2C99.0734 21.9733 98.8434 21.7733 98.5301 21.6C98.2167 21.4267 97.8667 21.34 97.4801 21.34C97.0534 21.34 96.6601 21.4233 96.3001 21.59C95.9401 21.7567 95.6301 21.9867 95.3701 22.28C95.1101 22.5733 94.9067 22.91 94.7601 23.29C94.6134 23.67 94.5401 24.0667 94.5401 24.48C94.5401 24.76 94.5834 25.03 94.6701 25.29C94.7567 25.55 94.8867 25.7767 95.0601 25.97C95.2334 26.1633 95.4567 26.32 95.7301 26.44C96.0034 26.56 96.3267 26.62 96.7001 26.62C97.1801 26.62 97.5867 26.5333 97.9201 26.36C98.2534 26.1867 98.5401 25.9733 98.7801 25.72L100.3 27.76C99.7801 28.2267 99.1934 28.5967 98.5401 28.87C97.8867 29.1433 97.1334 29.28 96.2801 29.28C95.5601 29.28 94.9001 29.1767 94.3001 28.97C93.7001 28.7633 93.1901 28.4667 92.7701 28.08C92.3501 27.6933 92.0234 27.2333 91.7901 26.7C91.5567 26.1667 91.4401 25.5667 91.4401 24.9C91.4401 24.0867 91.5867 23.31 91.8801 22.57C92.1734 21.83 92.5867 21.1767 93.1201 20.61C93.6534 20.0433 94.2967 19.59 95.0501 19.25C95.8034 18.91 96.6401 18.74 97.5601 18.74C98.3201 18.74 99.0301 18.8667 99.6901 19.12C100.35 19.3733 100.867 19.76 101.24 20.28L99.2201 22.2ZM108.72 23.6L107.78 29H110.98L112.06 22.88C112.1 22.7067 112.127 22.53 112.14 22.35C112.153 22.17 112.16 21.9867 112.16 21.8C112.16 21.4 112.1 21.0167 111.98 20.65C111.86 20.2833 111.67 19.96 111.41 19.68C111.15 19.4 110.82 19.18 110.42 19.02C110.02 18.86 109.54 18.78 108.98 18.78C108.3 18.78 107.707 18.9367 107.2 19.25C106.693 19.5633 106.3 19.9267 106.02 20.34H105.98L107.12 13.88H103.9L101.24 29H104.44L105.4 23.64C105.507 23.0267 105.737 22.5033 106.09 22.07C106.443 21.6367 106.913 21.42 107.5 21.42C107.993 21.42 108.337 21.55 108.53 21.81C108.723 22.07 108.82 22.3867 108.82 22.76C108.82 23.0133 108.787 23.2933 108.72 23.6Z" fill="#1E1F20"/>
</svg>
