<svg width="48" height="38" viewBox="0 0 48 38" fill="none" xmlns="http://www.w3.org/2000/svg">
<path fill-rule="evenodd" clip-rule="evenodd" d="M0.00466442 24.7577C-0.118269 23.9387 2.20723 23.8006 4.79908 22.6263C4.92201 22.577 5.20885 22.5819 5.93109 22.1675C6.47917 21.8616 11.8421 20.4752 11.8934 19.8387C11.96 19.074 6.0489 18.3142 6.1872 17.5692C6.95554 13.4594 8.86101 9.75902 11.7141 6.82342C15.7555 2.65438 21.7639 0 29.1399 0C35.804 0 41.5101 2.97014 43.9381 6.03895L36.562 13.8491C34.5439 11.92 31.5115 10.5682 28.3767 10.5682C25.0473 10.5682 22.3735 11.7671 20.5499 13.6419C19.4845 14.7421 18.7008 16.0743 18.2193 17.5692C17.9888 18.2895 23.8435 19.0543 23.7565 19.8387C23.7052 20.2828 20.5499 20.7071 19.6689 21.2695C19.3872 21.4472 17.9888 22.0047 17.7225 22.1724C16.3241 23.1 12.088 23.9881 12.4773 24.7084C12.8922 25.4682 19.4538 26.0898 20.1043 26.5882C21.3183 27.5009 22.8806 27.9548 24.5402 27.9548C25.8054 27.9548 26.8144 27.7476 27.6238 27.3825L28.7865 23.4799H22.9779L23.2955 22.1675L29.8827 19.8387L24.4275 17.5692L24.8936 15.6697H41.9148L41.3974 17.5692L48 19.8387L40.1476 22.1675L33.4375 24.7528L38.949 26.5882L36.8643 34.2553C33.3811 36.3867 28.3767 38 23.2801 38C15.8426 38 8.48196 34.576 6.39209 26.5882C6.23842 26.006 0.101987 25.3942 0.00466442 24.7577Z" fill="#613BFF"/>
</svg>
